<svg xmlns="http://www.w3.org/2000/svg" width="401.012" height="401.007" viewBox="0 0 401.012 401.007">
  <defs>
    <style>
      .cls-1 {
        fill: #e50021;
        stroke: #e50021;
        stroke-miterlimit: 10;
      }
    </style>
  </defs>
  <g id="Group_2451" data-name="Group 2451" transform="translate(-126.874 32.126)">
    <g id="Layer_4" data-name="Layer 4" transform="translate(127.374 -31.626)">
      <g id="Group_946" data-name="Group 946" transform="translate(0)">
        <path id="Path_2506" data-name="Path 2506" class="cls-1" d="M941.908,710.278l-.084.744c-.045.491-.113,1.221-.2,2.172-.193,1.9-.407,4.7-.6,8.257-.067,1.782-.19,3.753-.205,5.9-.015,1.075-.051,2.193-.05,3.353s.015,2.363.023,3.6c.085,4.966.353,10.569.962,16.653a198.6,198.6,0,0,0,8.515,40.823,203.991,203.991,0,0,0,8.533,21.951,201.358,201.358,0,0,0,11.477,21.434,196.825,196.825,0,0,0,46.382,51.843,193.384,193.384,0,0,0,16.145,11.348c5.175,3.257,10.073,5.991,14.479,8.283l3.213,1.635,3.024,1.45c1.93.947,3.75,1.716,5.373,2.453.811.371,1.591.693,2.325,1l2.06.858c1.274.545,2.379.954,3.269,1.3l2.731,1.058-.889,2.385-2.767-1.071c-.9-.353-2.02-.767-3.31-1.319l-2.086-.869c-.742-.308-1.533-.634-2.354-1.01-1.645-.746-3.487-1.525-5.442-2.484l-3.063-1.469-3.254-1.655c-4.464-2.321-9.425-5.09-14.667-8.39a196.063,196.063,0,0,1-16.356-11.5,199.407,199.407,0,0,1-46.981-52.513A204.036,204.036,0,0,1,956.486,814.8a206.741,206.741,0,0,1-8.643-22.233,201.163,201.163,0,0,1-8.624-41.349c-.617-6.163-.888-11.838-.975-16.869q-.012-1.887-.023-3.651c0-1.175.036-2.308.05-3.4.017-2.178.14-4.175.208-5.98.2-3.608.414-6.439.609-8.364.089-.963.159-1.7.2-2.2s.084-.753.084-.753Z" transform="translate(-938.221 -531.412)"/>
        <path id="Path_2507" data-name="Path 2507" class="cls-1" d="M1155.434,1102.359l1.019.551c.644.36,1.586.833,2.713,1.406s2.434,1.26,3.868,1.925,2.938,1.43,4.486,2.1c3.068,1.4,6.186,2.687,8.534,3.628l3.931,1.523-.889,2.385-3.981-1.542c-2.378-.953-5.536-2.256-8.644-3.675-1.568-.678-3.1-1.444-4.544-2.126s-2.774-1.374-3.918-1.95-2.1-1.06-2.748-1.425l-1.032-.558Z" transform="translate(-1048.04 -730.887)"/>
        <path id="Path_2508" data-name="Path 2508" class="cls-1" d="M947.076,710.836s-.012.1-.035.3-.053.484-.087.852c-.068.734-.165,1.783-.282,3.042-.134,1.258-.208,2.731-.321,4.308s-.179,3.261-.254,4.945c-.134,3.369-.165,6.741-.131,9.27,0,.632.008,1.211.011,1.725s.029.961.041,1.33c.023.737.036,1.158.036,1.158l-2.544.08s-.013-.427-.037-1.174c-.011-.374-.025-.827-.041-1.347s-.007-1.107-.011-1.748c-.034-2.562,0-5.979.133-9.391.076-1.706.131-3.414.257-5.01s.191-3.09.326-4.365c.118-1.275.216-2.338.285-3.082.034-.372.061-.664.087-.863l.036-.3Z" transform="translate(-940.858 -531.695)"/>
        <path id="Path_2509" data-name="Path 2509" class="cls-1" d="M1195.337,352.865l-.735-.144c-.486-.087-1.2-.25-2.144-.4l-3.47-.586c-1.365-.235-2.946-.433-4.709-.695-.882-.137-1.816-.235-2.794-.353l-3.07-.36c-2.142-.186-4.453-.448-6.933-.589-4.955-.345-10.561-.56-16.676-.448s-12.733.5-19.692,1.308a200.22,200.22,0,0,0-21.7,3.8c-1.867.406-3.726.915-5.608,1.385-.943.229-1.875.516-2.818.772s-1.887.52-2.828.8l-2.828.867-1.42.437-1.413.47-2.836.944-2.828,1.012a196.546,196.546,0,0,0-22.311,9.66c-.916.448-1.815.927-2.714,1.407l-2.7,1.435-2.66,1.5-1.329.747-1.31.777-2.615,1.554-2.574,1.607c-1.723,1.054-3.387,2.19-5.065,3.291a200.087,200.087,0,0,0-18.716,14.3,196.537,196.537,0,0,0-28.5,30.443c-3.678,4.884-6.832,9.523-9.474,13.729-.664,1.05-1.275,2.085-1.881,3.074l-.888,1.461-.819,1.426-1.539,2.681c-.48.86-.919,1.691-1.345,2.474l-1.2,2.226-1.012,1.988c-.623,1.237-1.176,2.278-1.575,3.146l-1.262,2.644-2.3-1.081,1.278-2.678c.4-.88.965-1.933,1.6-3.187l1.025-2.014,1.216-2.255c.432-.793.877-1.635,1.363-2.506l1.557-2.715.831-1.444.9-1.479c.614-1,1.233-2.051,1.906-3.114,2.677-4.261,5.872-8.96,9.6-13.908a199.186,199.186,0,0,1,28.867-30.838,202.658,202.658,0,0,1,18.957-14.479c1.7-1.115,3.385-2.265,5.13-3.333l2.607-1.628,2.649-1.574,1.326-.787,1.346-.757,2.7-1.515,2.732-1.454c.91-.486,1.821-.971,2.748-1.425a199.186,199.186,0,0,1,22.6-9.784l2.864-1.025,2.873-.956,1.431-.476,1.438-.443,2.865-.878c.954-.287,1.914-.542,2.865-.813s1.9-.55,2.853-.782c1.907-.477,3.79-.991,5.681-1.4a202.691,202.691,0,0,1,21.976-3.846c7.049-.822,13.755-1.221,19.947-1.324s11.873.1,16.892.454c2.513.143,4.854.408,7.023.6l3.11.364c.99.119,1.937.219,2.83.357,1.787.264,3.387.467,4.771.7l3.515.594c.956.153,1.679.318,2.171.407l.744.145Z" transform="translate(-957.962 -346.714)"/>
        <path id="Path_2510" data-name="Path 2510" class="cls-1" d="M997.152,535.4l-.627.975c-.393.624-.98,1.5-1.639,2.578l-2.243,3.692-2.463,4.3-2.353,4.357-1.959,3.851c-.566,1.131-1,2.09-1.327,2.753s-.5,1.046-.5,1.046l-2.3-1.081.506-1.06c.327-.672.771-1.643,1.344-2.788l1.984-3.9,2.384-4.415,2.5-4.353,2.272-3.74c.668-1.093,1.263-1.98,1.661-2.612l.635-.987Z" transform="translate(-960.345 -441.937)"/>
        <path id="Path_2511" data-name="Path 2511" class="cls-1" d="M1392.439,358.278l-1.138-.222c-.722-.151-1.76-.33-3.008-.537s-2.7-.478-4.265-.685-3.23-.488-4.906-.666c-1.675-.194-3.347-.412-4.922-.539s-3.041-.3-4.3-.371l-3.048-.206c-.735-.055-1.157-.064-1.157-.064l.133-2.542s.427.009,1.173.065l3.088.209c1.28.07,2.765.235,4.36.376s3.291.35,4.987.547c1.7.18,3.385.455,4.972.674s3.057.488,4.32.694,2.316.391,3.047.544l1.153.225Z" transform="translate(-1155.548 -349.628)"/>
        <path id="Path_2512" data-name="Path 2512" class="cls-1" d="M1637.14,627.757s.269-.983.775-2.825c.267-.918.529-2.067.868-3.41q.25-1.008.536-2.166.26-1.163.549-2.469c.19-.871.4-1.787.6-2.751s.386-1.979.592-3.034q.154-.791.313-1.615.14-.827.285-1.685c.189-1.145.4-2.328.59-3.556.755-4.91,1.407-10.481,1.824-16.581A196.64,196.64,0,0,0,1642.456,546a200.169,200.169,0,0,0-4.793-23.058c-.548-1.93-1.062-3.878-1.676-5.8l-.895-2.9q-.479-1.441-.96-2.887l-.482-1.445-.515-1.435L1632.1,505.6l-1.1-2.851c-.365-.951-.731-1.9-1.13-2.84A196.606,196.606,0,0,0,1619.326,478l-1.475-2.616-1.527-2.571-.76-1.28-.787-1.26-1.571-2.507c-.526-.83-1.078-1.641-1.613-2.459s-1.062-1.637-1.625-2.427c-1.116-1.588-2.188-3.189-3.334-4.718a200.2,200.2,0,0,0-13.917-17.071c-4.73-5.169-9.478-9.8-14.032-13.878s-8.928-7.593-12.9-10.575c-1.967-1.517-3.885-2.832-5.626-4.093l-2.557-1.737c-.816-.551-1.587-1.088-2.343-1.562-1.5-.957-2.83-1.841-4.015-2.557l-3.008-1.828c-.812-.5-1.459-.848-1.883-1.1l-.649-.372,1.269-2.207.657.378c.43.255,1.085.6,1.908,1.114l3.046,1.851c1.2.726,2.543,1.621,4.067,2.591.766.48,1.547,1.023,2.374,1.582l2.589,1.761c1.764,1.277,3.707,2.609,5.7,4.145,4.023,3.021,8.46,6.574,13.068,10.713s9.423,8.822,14.214,14.058a202.791,202.791,0,0,1,14.1,17.291c1.16,1.549,2.247,3.171,3.376,4.779.571.8,1.094,1.637,1.645,2.458s1.1,1.649,1.634,2.49l1.592,2.539.8,1.276.771,1.3,1.546,2.6,1.494,2.649a199.158,199.158,0,0,1,10.68,22.188c.4.95.775,1.913,1.145,2.876l1.113,2.888,1.047,2.909.522,1.453.488,1.464.973,2.923.906,2.937c.62,1.95,1.141,3.924,1.7,5.878a202.686,202.686,0,0,1,4.855,23.355,199.218,199.218,0,0,1,1.641,42.209c-.423,6.179-1.083,11.823-1.848,16.8-.188,1.244-.406,2.442-.6,3.6q-.146.869-.289,1.707-.16.833-.317,1.636-.314,1.6-.6,3.073c-.2.977-.417,1.9-.609,2.786s-.382,1.716-.556,2.5l-.543,2.193c-.344,1.36-.61,2.524-.879,3.454l-.787,2.861Z" transform="translate(-1247.067 -374.407)"/>
        <path id="Path_2513" data-name="Path 2513" class="cls-1" d="M1565.5,422.9s-.325-.269-.918-.708l-2.44-1.839c-1-.775-2.215-1.611-3.5-2.537s-2.682-1.864-4.074-2.814-2.82-1.847-4.145-2.709-2.6-1.61-3.673-2.274-1.98-1.2-2.625-1.563l-1.006-.577,1.27-2.206,1.019.584c.653.363,1.567.914,2.659,1.583s2.383,1.423,3.721,2.3,2.8,1.769,4.2,2.745,2.836,1.9,4.128,2.851,2.53,1.785,3.542,2.57l2.472,1.863c.6.445.929.718.929.718Z" transform="translate(-1245.754 -376.689)"/>
        <path id="Path_2514" data-name="Path 2514" class="cls-1" d="M1726.718,833.385l.307-1.118c.191-.713.486-1.724.8-2.949s.659-2.66,1.039-4.193c.342-1.543.708-3.189,1.073-4.835.323-1.655.647-3.309.95-4.86l.72-4.259c.208-1.247.337-2.293.447-3.022s.165-1.148.165-1.148l2.522.345-.167,1.162c-.113.739-.243,1.8-.454,3.062s-.463,2.737-.73,4.315c-.307,1.572-.635,3.248-.962,4.924-.371,1.668-.74,3.335-1.088,4.9l-1.053,4.249c-.316,1.241-.616,2.266-.809,2.988l-.31,1.132Z" transform="translate(-1339.096 -580.725)"/>
        <path id="Path_2515" data-name="Path 2515" class="cls-1" d="M1203.9,1054.907l2.758.988c.9.319,2,.734,3.324,1.155l2.119.7c.754.25,1.554.518,2.41.768,1.71.506,3.589,1.116,5.668,1.662l3.236.883,3.5.867c4.832,1.152,10.324,2.291,16.368,3.216a193.545,193.545,0,0,0,19.635,1.988,196.792,196.792,0,0,0,69-8.838,201.519,201.519,0,0,0,22.707-8.693,204.213,204.213,0,0,0,20.819-11.011,198.629,198.629,0,0,0,33.157-25.29c4.443-4.2,8.312-8.262,11.627-11.961l2.377-2.71c.76-.876,1.464-1.745,2.157-2.567,1.395-1.636,2.593-3.207,3.708-4.6,2.184-2.82,3.852-5.072,4.95-6.636l1.269-1.774.423-.617,2.094,1.449-.429.625-1.286,1.8c-1.113,1.584-2.8,3.866-5.015,6.723-1.13,1.409-2.344,3-3.757,4.657-.7.833-1.415,1.713-2.185,2.6l-2.407,2.745c-3.358,3.747-7.277,7.861-11.778,12.116a201.141,201.141,0,0,1-33.585,25.617,206.732,206.732,0,0,1-21.085,11.152,204.132,204.132,0,0,1-23,8.8,199.378,199.378,0,0,1-69.891,8.951,196.013,196.013,0,0,1-19.89-2.013c-6.123-.937-11.686-2.09-16.58-3.257l-3.544-.878-3.277-.894c-2.106-.555-4.009-1.171-5.741-1.684-.867-.253-1.678-.524-2.441-.778l-2.145-.707c-1.337-.428-2.454-.846-3.366-1.17l-2.793-1Z" transform="translate(-1072.839 -669.918)"/>
        <path id="Path_2516" data-name="Path 2516" class="cls-1" d="M1636.6,1000.52l.786-.852.9-.979,1.138-1.3c1.68-1.89,3.864-4.459,5.968-7.094,1.045-1.323,2.109-2.631,3.045-3.9s1.854-2.429,2.576-3.467l1.778-2.485c.215-.3.383-.535.492-.7l.17-.251,2.093,1.449-.172.254c-.11.167-.281.407-.5.71l-1.8,2.518c-.732,1.052-1.652,2.23-2.611,3.513s-2.026,2.616-3.084,3.956c-2.131,2.669-4.345,5.273-6.047,7.187l-1.153,1.314-.912.991-.8.864Z" transform="translate(-1293.278 -668.419)"/>
        <path id="Path_2517" data-name="Path 2517" class="cls-1" d="M1205.7,1125l3.969,1.422c2.39.825,5.59,1.893,8.826,2.843,1.609.507,3.243.922,4.765,1.35s2.958.767,4.184,1.077,2.249.563,2.972.712l1.132.25-.555,2.485-1.147-.255c-.732-.151-1.767-.412-3.01-.721s-2.7-.649-4.238-1.09-3.2-.854-4.827-1.367c-3.278-.961-6.519-2.044-8.94-2.88l-4.02-1.44Z" transform="translate(-1073.759 -742.398)"/>
      </g>
    </g>
  </g>
</svg>
