<svg xmlns="http://www.w3.org/2000/svg" xmlns:xlink="http://www.w3.org/1999/xlink" width="1232" height="239" viewBox="0 0 1232 239">
  <defs>
    <style>
      .cls-1 {
        fill: #fff;
      }

      .cls-2 {
        clip-path: url(#clip-path);
      }

      .cls-13, .cls-3 {
        opacity: 0.5;
      }

      .cls-3 {
        isolation: isolate;
      }

      .cls-4 {
        opacity: 0.1;
      }

      .cls-5 {
        fill: #c9c9c9;
      }

      .cls-6 {
        opacity: 0.2;
      }

      .cls-7 {
        fill: #cbcbcb;
      }

      .cls-8 {
        opacity: 0.3;
      }

      .cls-9 {
        opacity: 0.05;
      }

      .cls-10 {
        opacity: 0.6;
      }

      .cls-11 {
        opacity: 0.8;
      }

      .cls-12 {
        opacity: 0.4;
      }

      .cls-14 {
        opacity: 0.75;
      }
    </style>
    <clipPath id="clip-path">
      <rect id="Rectangle_2002" data-name="Rectangle 2002" class="cls-1" width="1232" height="239" rx="12" transform="translate(32 825)"/>
    </clipPath>
  </defs>
  <g id="Mask_Group_94" data-name="Mask Group 94" class="cls-2" transform="translate(-32 -825)">
    <rect id="Rectangle_1992" data-name="Rectangle 1992" class="cls-1" width="1338" height="352" transform="translate(-43 797)"/>
    <g id="Group_1998" data-name="Group 1998" class="cls-3" transform="translate(0 659.394)">
      <g id="Group_1823" data-name="Group 1823" class="cls-4" transform="translate(362.845 336.054)">
        <path id="Path_2445" data-name="Path 2445" class="cls-5" d="M-1208.34,467.8l-55.132-22.753-24.781,61.136Z" transform="translate(1288.253 -445.052)"/>
      </g>
      <g id="Group_1824" data-name="Group 1824" class="cls-6" transform="translate(945.494 421.135)">
        <path id="Path_2446" data-name="Path 2446" class="cls-7" d="M-2016.043,566.24l-1.4,17.155-26.168-16.644Z" transform="translate(2043.611 -566.24)"/>
      </g>
      <g id="Group_1825" data-name="Group 1825" class="cls-6" transform="translate(728.921 354.042)">
        <path id="Path_2447" data-name="Path 2447" class="cls-5" d="M-1717.37,507.822l-10.024-37.149-40.665,22.935Z" transform="translate(1768.059 -470.673)"/>
      </g>
      <g id="Group_1826" data-name="Group 1826" class="cls-8" transform="translate(137.842 421.899)">
        <rect id="Rectangle_1993" data-name="Rectangle 1993" class="cls-7" width="59.216" height="0.702" transform="translate(54.34 24.176) rotate(-156.585)"/>
      </g>
      <g id="Group_1827" data-name="Group 1827" transform="translate(1001.701 409.73)">
        <rect id="Rectangle_1994" data-name="Rectangle 1994" class="cls-7" width="93.798" height="0.702" transform="translate(26.189 90.264) rotate(-106.213)"/>
      </g>
      <g id="Group_1828" data-name="Group 1828" class="cls-8" transform="translate(943.705 359.149)">
        <rect id="Rectangle_1995" data-name="Rectangle 1995" class="cls-7" width="76.925" height="0.702" transform="translate(58.111 50.935) rotate(-139.062)"/>
      </g>
      <g id="Group_1829" data-name="Group 1829" class="cls-4" transform="translate(518.622 181.218)">
        <path id="Path_2448" data-name="Path 2448" class="cls-5" d="M-1462.21,274.875c1.752-2.678,35.621-50.37,35.621-50.37l-71.343,23.783Z" transform="translate(1497.932 -224.505)"/>
      </g>
      <g id="Group_1830" data-name="Group 1830" class="cls-6" transform="translate(390.464 184.253)">
        <path id="Path_2449" data-name="Path 2449" class="cls-5" d="M-1240.859,288.393l-42.973-59.564-20.866,47.091Z" transform="translate(1304.699 -228.829)"/>
      </g>
      <g id="Group_1831" data-name="Group 1831" class="cls-9" transform="translate(274.095 149.943)">
        <path id="Path_2450" data-name="Path 2450" class="cls-7" d="M-1079.9,179.958l-75.148,56.342,14.308-45.9Z" transform="translate(1155.052 -179.958)"/>
      </g>
      <g id="Group_1832" data-name="Group 1832" class="cls-6" transform="translate(128.584 168.624)">
        <path id="Path_2451" data-name="Path 2451" class="cls-7" d="M-863.144,226.936l-52.772,36.254,30.944-56.624Z" transform="translate(915.916 -206.567)"/>
      </g>
      <g id="Group_1833" data-name="Group 1833" class="cls-4" transform="translate(122.765 310.374)">
        <path id="Path_2452" data-name="Path 2452" class="cls-5" d="M-880.109,427.92l-47.642,47.719-64.636-67.165Z" transform="translate(992.387 -408.474)"/>
      </g>
      <g id="Group_1834" data-name="Group 1834" class="cls-6" transform="translate(638.217 204.893)">
        <path id="Path_2453" data-name="Path 2453" class="cls-5" d="M-1594.4,310.517l-21.357-52.289-44,55.676Z" transform="translate(1659.752 -258.228)"/>
      </g>
      <g id="Group_1835" data-name="Group 1835" class="cls-6" transform="translate(489.334 285.134)">
        <path id="Path_2454" data-name="Path 2454" class="cls-5" d="M-1377.766,420.555l-27.085-48.033-27.513,38.123Z" transform="translate(1432.364 -372.521)"/>
      </g>
      <g id="Group_1836" data-name="Group 1836" class="cls-4" transform="translate(322.451 231.344)">
        <path id="Path_2455" data-name="Path 2455" class="cls-7" d="M-1173.362,342.79l-40.4-4.456,68.014-42.43Z" transform="translate(1213.767 -295.904)"/>
      </g>
      <g id="Group_1837" data-name="Group 1837" class="cls-4" transform="translate(194.496 104.636)">
        <path id="Path_2456" data-name="Path 2456" class="cls-5" d="M-974.872,171.662l12.722-39.1-64.839-17.135Z" transform="translate(1026.988 -115.424)"/>
      </g>
      <g id="Group_1838" data-name="Group 1838" transform="translate(485.823 319.746)">
        <path id="Path_2457" data-name="Path 2457" class="cls-7" d="M-1359.574,424.948a3.51,3.51,0,0,1,3.874-3.1,3.51,3.51,0,0,1,3.1,3.874,3.51,3.51,0,0,1-3.874,3.1A3.511,3.511,0,0,1-1359.574,424.948Z" transform="translate(1359.596 -421.822)"/>
      </g>
      <g id="Group_1839" data-name="Group 1839" transform="translate(545.571 227.244)">
        <path id="Path_2458" data-name="Path 2458" class="cls-7" d="M-1454.656,296.315a7.021,7.021,0,0,1,7.748-6.208,7.02,7.02,0,0,1,6.208,7.748,7.02,7.02,0,0,1-7.748,6.208A7.02,7.02,0,0,1-1454.656,296.315Z" transform="translate(1454.699 -290.064)"/>
      </g>
      <g id="Group_1840" data-name="Group 1840" transform="translate(835.978 399.909)">
        <path id="Path_2459" data-name="Path 2459" class="cls-7" d="M-1862.462,540.425a4.964,4.964,0,0,1,5.478-4.389,4.964,4.964,0,0,1,4.39,5.477,4.964,4.964,0,0,1-5.478,4.39A4.964,4.964,0,0,1-1862.462,540.425Z" transform="translate(1862.492 -536.006)"/>
      </g>
      <g id="Group_1841" data-name="Group 1841" transform="translate(252.314 114.75)">
        <path id="Path_2460" data-name="Path 2460" class="cls-7" d="M-1036.946,136.081a7.021,7.021,0,0,1,7.748-6.209,7.021,7.021,0,0,1,6.209,7.748,7.021,7.021,0,0,1-7.748,6.209A7.021,7.021,0,0,1-1036.946,136.081Z" transform="translate(1036.989 -129.829)"/>
      </g>
      <g id="Group_1842" data-name="Group 1842" transform="translate(450.793 240.307)">
        <path id="Path_2461" data-name="Path 2461" class="cls-7" d="M-1309.677,311.8a3.51,3.51,0,0,1,3.874-3.1,3.511,3.511,0,0,1,3.1,3.874,3.51,3.51,0,0,1-3.874,3.1A3.51,3.51,0,0,1-1309.677,311.8Z" transform="translate(1309.699 -308.671)"/>
      </g>
      <g id="Group_1843" data-name="Group 1843" transform="translate(231.533 326.31)">
        <path id="Path_2462" data-name="Path 2462" class="cls-7" d="M-997.366,434.3a3.51,3.51,0,0,1,3.874-3.1,3.51,3.51,0,0,1,3.1,3.874,3.511,3.511,0,0,1-3.874,3.1A3.511,3.511,0,0,1-997.366,434.3Z" transform="translate(997.388 -431.172)"/>
      </g>
      <g id="Group_1844" data-name="Group 1844" transform="translate(270.584 202.774)">
        <path id="Path_2463" data-name="Path 2463" class="cls-7" d="M-1052.991,258.335a3.51,3.51,0,0,1,3.874-3.1,3.51,3.51,0,0,1,3.1,3.874,3.51,3.51,0,0,1-3.874,3.1A3.51,3.51,0,0,1-1052.991,258.335Z" transform="translate(1053.013 -255.21)"/>
      </g>
      <g id="Group_1845" data-name="Group 1845" transform="translate(117.148 304.757)">
        <path id="Path_2464" data-name="Path 2464" class="cls-7" d="M-840.427,405.475a5.616,5.616,0,0,1,6.2-4.967,5.617,5.617,0,0,1,4.967,6.2,5.617,5.617,0,0,1-6.2,4.967A5.617,5.617,0,0,1-840.427,405.475Z" transform="translate(840.461 -400.473)"/>
      </g>
      <g id="Group_1846" data-name="Group 1846" transform="translate(409.224 182.147)">
        <path id="Path_2465" data-name="Path 2465" class="cls-7" d="M-1246.476,227.7a2.106,2.106,0,0,1,2.325-1.863,2.106,2.106,0,0,1,1.863,2.325,2.107,2.107,0,0,1-2.325,1.863A2.107,2.107,0,0,1-1246.476,227.7Z" transform="translate(1246.488 -225.829)"/>
      </g>
      <g id="Group_1847" data-name="Group 1847" transform="translate(243.102 157.364)">
        <path id="Path_2466" data-name="Path 2466" class="cls-7" d="M-1013.846,193.654a3.511,3.511,0,0,1,3.874-3.1,3.511,3.511,0,0,1,3.1,3.874,3.511,3.511,0,0,1-3.874,3.1A3.51,3.51,0,0,1-1013.846,193.654Z" transform="translate(1013.867 -190.529)"/>
      </g>
      <g id="Group_1848" data-name="Group 1848" transform="translate(386.954 227.833)">
        <path id="Path_2467" data-name="Path 2467" class="cls-7" d="M-1215.384,290.906a3.51,3.51,0,0,1,3.636,3.38,3.509,3.509,0,0,1-3.379,3.636,3.51,3.51,0,0,1-3.637-3.379A3.51,3.51,0,0,1-1215.384,290.906Z" transform="translate(1218.767 -290.904)"/>
      </g>
      <g id="Group_1849" data-name="Group 1849" transform="translate(421.85 279.068)">
        <ellipse id="Ellipse_295" data-name="Ellipse 295" class="cls-7" cx="4.914" cy="4.914" rx="4.914" ry="4.914" transform="matrix(-0.366, -0.931, 0.931, -0.366, 3.595, 12.741)"/>
      </g>
      <g id="Group_1850" data-name="Group 1850" transform="translate(591.718 284.476)">
        <path id="Path_2468" data-name="Path 2468" class="cls-7" d="M-1504.4,371.586a2.107,2.107,0,0,1,2.182,2.028,2.106,2.106,0,0,1-2.027,2.181,2.1,2.1,0,0,1-2.181-2.027A2.106,2.106,0,0,1-1504.4,371.586Z" transform="translate(1506.429 -371.585)"/>
      </g>
      <g id="Group_1851" data-name="Group 1851" transform="translate(586.454 177.707)">
        <path id="Path_2469" data-name="Path 2469" class="cls-7" d="M-1499.55,219.507a3.51,3.51,0,0,1,3.636,3.38,3.51,3.51,0,0,1-3.379,3.636,3.51,3.51,0,0,1-3.637-3.379A3.51,3.51,0,0,1-1499.55,219.507Z" transform="translate(1502.932 -219.505)"/>
      </g>
      <g id="Group_1852" data-name="Group 1852" transform="translate(764.626 349.082)">
        <ellipse id="Ellipse_296" data-name="Ellipse 296" class="cls-7" cx="3.51" cy="3.51" rx="3.51" ry="3.51" transform="translate(5.173 9.919) rotate(-137.46)"/>
      </g>
      <g id="Group_1853" data-name="Group 1853" transform="translate(941.984 418.135)">
        <path id="Path_2470" data-name="Path 2470" class="cls-7" d="M-2005.96,561.969a3.51,3.51,0,0,1,3.636,3.38,3.51,3.51,0,0,1-3.379,3.636,3.511,3.511,0,0,1-3.637-3.379A3.511,3.511,0,0,1-2005.96,561.969Z" transform="translate(2009.343 -561.967)"/>
      </g>
      <g id="Group_1854" data-name="Group 1854" transform="translate(324.689 333.611)">
        <path id="Path_2471" data-name="Path 2471" class="cls-7" d="M-1130.057,444.7a3.51,3.51,0,0,1,3.874-3.1,3.51,3.51,0,0,1,3.1,3.874,3.511,3.511,0,0,1-3.874,3.1A3.511,3.511,0,0,1-1130.057,444.7Z" transform="translate(1130.079 -441.571)"/>
      </g>
      <g id="Group_1855" data-name="Group 1855" transform="translate(134.464 418.726)">
        <path id="Path_2472" data-name="Path 2472" class="cls-7" d="M-859.1,565.934a3.51,3.51,0,0,1,3.874-3.1,3.511,3.511,0,0,1,3.1,3.874,3.51,3.51,0,0,1-3.874,3.1A3.51,3.51,0,0,1-859.1,565.934Z" transform="translate(859.124 -562.809)"/>
      </g>
      <g id="Group_1856" data-name="Group 1856" transform="translate(268.32 269.461)">
        <path id="Path_2473" data-name="Path 2473" class="cls-7" d="M-1045.774,352.073a2.106,2.106,0,0,1,2.325-1.863,2.107,2.107,0,0,1,1.863,2.325,2.107,2.107,0,0,1-2.325,1.863A2.106,2.106,0,0,1-1045.774,352.073Z" transform="translate(1045.787 -350.198)"/>
      </g>
      <g id="Group_1857" data-name="Group 1857" transform="translate(177.845 185.483)">
        <path id="Path_2474" data-name="Path 2474" class="cls-7" d="M-920.895,233.706a3.51,3.51,0,0,1,3.874-3.1,3.511,3.511,0,0,1,3.1,3.874,3.511,3.511,0,0,1-3.874,3.1A3.51,3.51,0,0,1-920.895,233.706Z" transform="translate(920.916 -230.58)"/>
      </g>
      <g id="Group_1858" data-name="Group 1858" transform="translate(678.704 201.382)">
        <path id="Path_2475" data-name="Path 2475" class="cls-7" d="M-1634.31,256.353a3.511,3.511,0,0,1,3.874-3.1,3.51,3.51,0,0,1,3.1,3.874,3.511,3.511,0,0,1-3.874,3.1A3.511,3.511,0,0,1-1634.31,256.353Z" transform="translate(1634.332 -253.228)"/>
      </g>
      <g id="Group_1859" data-name="Group 1859" transform="translate(756.742 285.004)">
        <path id="Path_2476" data-name="Path 2476" class="cls-7" d="M-1745.468,375.462a3.51,3.51,0,0,1,3.874-3.1,3.51,3.51,0,0,1,3.1,3.874,3.51,3.51,0,0,1-3.874,3.1A3.51,3.51,0,0,1-1745.468,375.462Z" transform="translate(1745.489 -372.336)"/>
      </g>
      <g id="Group_1860" data-name="Group 1860" transform="translate(897.147 374.004)">
        <path id="Path_2477" data-name="Path 2477" class="cls-7" d="M-1945.457,502.233a3.511,3.511,0,0,1,3.874-3.1,3.511,3.511,0,0,1,3.1,3.874,3.511,3.511,0,0,1-3.874,3.1A3.51,3.51,0,0,1-1945.457,502.233Z" transform="translate(1945.478 -499.108)"/>
      </g>
      <g id="Group_1861" data-name="Group 1861" transform="translate(1024.717 496.385)">
        <path id="Path_2478" data-name="Path 2478" class="cls-7" d="M-2127.167,676.551a3.511,3.511,0,0,1,3.874-3.1,3.511,3.511,0,0,1,3.1,3.874,3.511,3.511,0,0,1-3.874,3.1A3.511,3.511,0,0,1-2127.167,676.551Z" transform="translate(2127.188 -673.426)"/>
      </g>
      <g id="Group_1862" data-name="Group 1862" transform="translate(712.902 300.302)">
        <path id="Path_2479" data-name="Path 2479" class="cls-7" d="M-1679.03,396a2.106,2.106,0,0,1,2.324-1.863,2.1,2.1,0,0,1,1.863,2.324,2.106,2.106,0,0,1-2.324,1.863A2.106,2.106,0,0,1-1679.03,396Z" transform="translate(1679.043 -394.128)"/>
      </g>
      <g id="Group_1863" data-name="Group 1863" transform="translate(865.568 444.683)">
        <path id="Path_2480" data-name="Path 2480" class="cls-7" d="M-1896.485,601.657a2.107,2.107,0,0,1,2.324-1.863,2.106,2.106,0,0,1,1.863,2.324,2.105,2.105,0,0,1-2.324,1.863A2.106,2.106,0,0,1-1896.485,601.657Z" transform="translate(1896.498 -599.782)"/>
      </g>
      <g id="Group_1864" data-name="Group 1864" transform="translate(970.956 419.029)">
        <path id="Path_2481" data-name="Path 2481" class="cls-7" d="M-2046.6,565.115a2.106,2.106,0,0,1,2.324-1.863,2.105,2.105,0,0,1,1.863,2.324,2.106,2.106,0,0,1-2.325,1.863A2.105,2.105,0,0,1-2046.6,565.115Z" transform="translate(2046.612 -563.24)"/>
      </g>
      <g id="Group_1865" data-name="Group 1865" transform="translate(700.061 253.672)">
        <path id="Path_2482" data-name="Path 2482" class="cls-7" d="M-1664.73,330.833a3.511,3.511,0,0,1,3.874-3.1,3.51,3.51,0,0,1,3.1,3.874,3.51,3.51,0,0,1-3.874,3.1A3.51,3.51,0,0,1-1664.73,330.833Z" transform="translate(1664.752 -327.708)"/>
      </g>
      <g id="Group_1866" data-name="Group 1866" transform="translate(663.658 307.032)">
        <path id="Path_2483" data-name="Path 2483" class="cls-7" d="M-1616.871,408.089a4.914,4.914,0,0,1,5.423-4.346,4.914,4.914,0,0,1,4.347,5.423,4.915,4.915,0,0,1-5.424,4.346A4.914,4.914,0,0,1-1616.871,408.089Z" transform="translate(1616.901 -403.713)"/>
      </g>
      <g id="Group_1867" data-name="Group 1867" transform="translate(634.706 257.058)">
        <path id="Path_2484" data-name="Path 2484" class="cls-7" d="M-1571.64,335.658a3.51,3.51,0,0,1,3.874-3.1,3.511,3.511,0,0,1,3.1,3.874,3.51,3.51,0,0,1-3.874,3.1A3.51,3.51,0,0,1-1571.64,335.658Z" transform="translate(1571.662 -332.532)"/>
      </g>
      <g id="Group_1868" data-name="Group 1868" transform="translate(515.111 201.49)">
        <path id="Path_2485" data-name="Path 2485" class="cls-7" d="M-1401.291,256.506a3.51,3.51,0,0,1,3.874-3.1,3.511,3.511,0,0,1,3.1,3.874,3.511,3.511,0,0,1-3.874,3.1A3.51,3.51,0,0,1-1401.291,256.506Z" transform="translate(1401.312 -253.38)"/>
      </g>
      <g id="Group_1869" data-name="Group 1869" transform="translate(513.336 281.623)">
        <path id="Path_2486" data-name="Path 2486" class="cls-7" d="M-1398.763,370.647a3.51,3.51,0,0,1,3.874-3.1,3.51,3.51,0,0,1,3.1,3.874,3.51,3.51,0,0,1-3.874,3.1A3.51,3.51,0,0,1-1398.763,370.647Z" transform="translate(1398.784 -367.521)"/>
      </g>
      <g id="Group_1870" data-name="Group 1870" transform="translate(384.116 332.544)">
        <path id="Path_2487" data-name="Path 2487" class="cls-7" d="M-1214.7,443.177a3.51,3.51,0,0,1,3.874-3.1,3.51,3.51,0,0,1,3.1,3.874,3.511,3.511,0,0,1-3.874,3.1A3.51,3.51,0,0,1-1214.7,443.177Z" transform="translate(1214.724 -440.051)"/>
      </g>
      <g id="Group_1871" data-name="Group 1871" transform="translate(263.481 399.081)">
        <path id="Path_2488" data-name="Path 2488" class="cls-7" d="M-1038.881,536.7a2.107,2.107,0,0,1,2.324-1.863,2.106,2.106,0,0,1,1.863,2.325,2.106,2.106,0,0,1-2.325,1.863A2.106,2.106,0,0,1-1038.881,536.7Z" transform="translate(1038.894 -534.827)"/>
      </g>
      <g id="Group_1872" data-name="Group 1872" transform="translate(440.652 356.7)">
        <path id="Path_2489" data-name="Path 2489" class="cls-7" d="M-1291.241,476.335a2.107,2.107,0,0,1,2.324-1.863,2.106,2.106,0,0,1,1.863,2.325,2.106,2.106,0,0,1-2.324,1.863A2.106,2.106,0,0,1-1291.241,476.335Z" transform="translate(1291.254 -474.46)"/>
      </g>
      <g id="Group_1873" data-name="Group 1873" transform="translate(605.613 347.742)">
        <path id="Path_2490" data-name="Path 2490" class="cls-7" d="M-1526.209,463.575a2.106,2.106,0,0,1,2.325-1.863,2.105,2.105,0,0,1,1.863,2.324,2.106,2.106,0,0,1-2.324,1.863A2.107,2.107,0,0,1-1526.209,463.575Z" transform="translate(1526.222 -461.7)"/>
      </g>
      <g id="Group_1874" data-name="Group 1874" transform="translate(322.954 72.634)">
        <path id="Path_2491" data-name="Path 2491" class="cls-7" d="M-1123.595,71.716a2.106,2.106,0,0,1,2.324-1.863,2.105,2.105,0,0,1,1.863,2.324,2.106,2.106,0,0,1-2.324,1.863A2.105,2.105,0,0,1-1123.595,71.716Z" transform="translate(1123.608 -69.841)"/>
      </g>
      <g id="Group_1875" data-name="Group 1875" transform="translate(145.268 20.768)">
        <path id="Path_2492" data-name="Path 2492" class="cls-7" d="M-870.5-2.162a2.106,2.106,0,0,1,2.324-1.863A2.106,2.106,0,0,1-866.313-1.7,2.107,2.107,0,0,1-868.638.163,2.106,2.106,0,0,1-870.5-2.162Z" transform="translate(870.513 4.037)"/>
      </g>
      <g id="Group_1876" data-name="Group 1876" transform="translate(501.371 129.853)">
        <path id="Path_2493" data-name="Path 2493" class="cls-7" d="M-1377.729,153.217a2.106,2.106,0,0,1,2.324-1.863,2.106,2.106,0,0,1,1.863,2.325,2.106,2.106,0,0,1-2.325,1.863A2.107,2.107,0,0,1-1377.729,153.217Z" transform="translate(1377.742 -151.342)"/>
      </g>
      <g id="Group_1877" data-name="Group 1877" transform="translate(649.348 174.734)">
        <path id="Path_2494" data-name="Path 2494" class="cls-7" d="M-1588.5,217.145a2.106,2.106,0,0,1,2.324-1.863,2.106,2.106,0,0,1,1.863,2.324,2.107,2.107,0,0,1-2.325,1.863A2.106,2.106,0,0,1-1588.5,217.145Z" transform="translate(1588.517 -215.27)"/>
      </g>
      <g id="Group_1878" data-name="Group 1878" transform="translate(794.63 330.606)">
        <path id="Path_2495" data-name="Path 2495" class="cls-7" d="M-1795.443,439.167a2.106,2.106,0,0,1,2.325-1.863,2.106,2.106,0,0,1,1.862,2.325,2.107,2.107,0,0,1-2.324,1.863A2.107,2.107,0,0,1-1795.443,439.167Z" transform="translate(1795.456 -437.292)"/>
      </g>
      <g id="Group_1879" data-name="Group 1879" transform="translate(399.784 430.356)">
        <path id="Path_2496" data-name="Path 2496" class="cls-7" d="M-1233.029,581.249a2.106,2.106,0,0,1,2.324-1.862,2.106,2.106,0,0,1,1.863,2.324,2.105,2.105,0,0,1-2.324,1.863A2.106,2.106,0,0,1-1233.029,581.249Z" transform="translate(1233.042 -579.374)"/>
      </g>
      <g id="Group_1880" data-name="Group 1880" transform="translate(421.682 108.881)">
        <path id="Path_2497" data-name="Path 2497" class="cls-7" d="M-1264.221,123.345a2.106,2.106,0,0,1,2.324-1.863,2.106,2.106,0,0,1,1.863,2.325,2.106,2.106,0,0,1-2.324,1.863A2.107,2.107,0,0,1-1264.221,123.345Z" transform="translate(1264.234 -121.47)"/>
      </g>
      <g id="Group_1881" data-name="Group 1881" transform="translate(634.881 412.613)">
        <path id="Path_2498" data-name="Path 2498" class="cls-7" d="M-1567.9,555.977a2.106,2.106,0,0,1,2.324-1.863,2.105,2.105,0,0,1,1.863,2.324,2.107,2.107,0,0,1-2.324,1.863A2.106,2.106,0,0,1-1567.9,555.977Z" transform="translate(1567.911 -554.102)"/>
      </g>
      <g id="Group_1882" data-name="Group 1882" transform="translate(818.477 321.272)">
        <path id="Path_2499" data-name="Path 2499" class="cls-7" d="M-1829.409,425.871a2.106,2.106,0,0,1,2.324-1.863,2.106,2.106,0,0,1,1.863,2.324,2.106,2.106,0,0,1-2.324,1.863A2.107,2.107,0,0,1-1829.409,425.871Z" transform="translate(1829.422 -423.996)"/>
      </g>
      <g id="Group_1883" data-name="Group 1883" transform="translate(895.785 465.334)">
        <path id="Path_2500" data-name="Path 2500" class="cls-7" d="M-1939.525,631.072a2.106,2.106,0,0,1,2.324-1.863,2.107,2.107,0,0,1,1.863,2.325,2.106,2.106,0,0,1-2.324,1.863A2.106,2.106,0,0,1-1939.525,631.072Z" transform="translate(1939.538 -629.197)"/>
      </g>
      <g id="Group_1884" data-name="Group 1884" transform="translate(126.984 465.943)">
        <path id="Path_2501" data-name="Path 2501" class="cls-7" d="M-844.458,631.939a2.106,2.106,0,0,1,2.324-1.863,2.106,2.106,0,0,1,1.863,2.325,2.106,2.106,0,0,1-2.325,1.863A2.107,2.107,0,0,1-844.458,631.939Z" transform="translate(844.471 -630.064)"/>
      </g>
      <g id="Group_1885" data-name="Group 1885" transform="translate(259.559 43.904)">
        <path id="Path_2502" data-name="Path 2502" class="cls-7" d="M-1033.294,30.793a2.105,2.105,0,0,1,2.324-1.863,2.106,2.106,0,0,1,1.863,2.325,2.105,2.105,0,0,1-2.324,1.863A2.106,2.106,0,0,1-1033.294,30.793Z" transform="translate(1033.307 -28.918)"/>
      </g>
      <g id="Group_1886" data-name="Group 1886" transform="translate(190.221 443.631)">
        <path id="Path_2503" data-name="Path 2503" class="cls-7" d="M-934.531,600.158a2.106,2.106,0,0,1,2.325-1.863,2.107,2.107,0,0,1,1.863,2.325,2.106,2.106,0,0,1-2.325,1.862A2.106,2.106,0,0,1-934.531,600.158Z" transform="translate(934.544 -598.283)"/>
      </g>
      <g id="Group_1887" data-name="Group 1887" transform="translate(293.937 468.247)">
        <path id="Path_2504" data-name="Path 2504" class="cls-7" d="M-1080.266,634.6a1.4,1.4,0,0,1,1.55-1.241,1.4,1.4,0,0,1,1.242,1.549,1.4,1.4,0,0,1-1.55,1.241A1.4,1.4,0,0,1-1080.266,634.6Z" transform="translate(1080.274 -633.346)"/>
      </g>
      <g id="Group_1888" data-name="Group 1888" transform="translate(773.731 172.216)">
        <path id="Path_2505" data-name="Path 2505" class="cls-7" d="M-1763.678,212.934a1.4,1.4,0,0,1,1.55-1.241,1.4,1.4,0,0,1,1.242,1.549,1.4,1.4,0,0,1-1.549,1.241A1.4,1.4,0,0,1-1763.678,212.934Z" transform="translate(1763.687 -211.684)"/>
      </g>
      <g id="Group_1889" data-name="Group 1889" transform="translate(90.845 439.85)">
        <path id="Path_2506" data-name="Path 2506" class="cls-7" d="M-790.985,594.148a1.4,1.4,0,0,1,1.549-1.241,1.4,1.4,0,0,1,1.242,1.549,1.4,1.4,0,0,1-1.549,1.242A1.4,1.4,0,0,1-790.985,594.148Z" transform="translate(790.993 -592.898)"/>
      </g>
      <g id="Group_1890" data-name="Group 1890" transform="translate(141.38 125.025)">
        <path id="Path_2507" data-name="Path 2507" class="cls-7" d="M-862.966,145.715a1.4,1.4,0,0,1,1.549-1.241,1.4,1.4,0,0,1,1.241,1.549,1.4,1.4,0,0,1-1.549,1.241A1.4,1.4,0,0,1-862.966,145.715Z" transform="translate(862.974 -144.465)"/>
      </g>
      <g id="Group_1891" data-name="Group 1891" transform="translate(560.631 462.685)">
        <path id="Path_2508" data-name="Path 2508" class="cls-7" d="M-1460.141,626.673a1.4,1.4,0,0,1,1.549-1.241,1.4,1.4,0,0,1,1.242,1.549,1.4,1.4,0,0,1-1.549,1.241A1.4,1.4,0,0,1-1460.141,626.673Z" transform="translate(1460.149 -625.423)"/>
      </g>
      <g id="Group_1892" data-name="Group 1892" transform="translate(191.081 302.654)">
        <path id="Path_2509" data-name="Path 2509" class="cls-7" d="M-933.76,398.727a1.4,1.4,0,0,1,1.549-1.241,1.4,1.4,0,0,1,1.242,1.549,1.4,1.4,0,0,1-1.549,1.241A1.4,1.4,0,0,1-933.76,398.727Z" transform="translate(933.768 -397.477)"/>
      </g>
      <g id="Group_1893" data-name="Group 1893" transform="translate(546.825 388.845)">
        <path id="Path_2510" data-name="Path 2510" class="cls-7" d="M-1440.476,521.5a1.4,1.4,0,0,1,1.549-1.242,1.4,1.4,0,0,1,1.242,1.549,1.4,1.4,0,0,1-1.55,1.242A1.4,1.4,0,0,1-1440.476,521.5Z" transform="translate(1440.484 -520.247)"/>
      </g>
      <g id="Group_1894" data-name="Group 1894" transform="translate(987.828 368.212)">
        <path id="Path_2511" data-name="Path 2511" class="cls-7" d="M-2068.635,492.107a1.4,1.4,0,0,1,1.55-1.241,1.4,1.4,0,0,1,1.242,1.549,1.4,1.4,0,0,1-1.549,1.241A1.4,1.4,0,0,1-2068.635,492.107Z" transform="translate(2068.644 -490.857)"/>
      </g>
      <g id="Group_1895" data-name="Group 1895" transform="translate(958.094 458.497)">
        <path id="Path_2512" data-name="Path 2512" class="cls-7" d="M-2026.281,620.708a1.4,1.4,0,0,1,1.549-1.241,1.4,1.4,0,0,1,1.241,1.549,1.4,1.4,0,0,1-1.55,1.241A1.4,1.4,0,0,1-2026.281,620.708Z" transform="translate(2026.29 -619.458)"/>
      </g>
      <g id="Group_1896" data-name="Group 1896" transform="translate(970.419 436.649)">
        <path id="Path_2513" data-name="Path 2513" class="cls-7" d="M-2043.838,589.588a1.4,1.4,0,0,1,1.549-1.241,1.4,1.4,0,0,1,1.242,1.549,1.4,1.4,0,0,1-1.55,1.241A1.4,1.4,0,0,1-2043.838,589.588Z" transform="translate(2043.846 -588.338)"/>
      </g>
      <g id="Group_1897" data-name="Group 1897" transform="translate(776.768 388.252)">
        <path id="Path_2514" data-name="Path 2514" class="cls-7" d="M-1772.065,521.924a2.833,2.833,0,0,1,3.126-2.506,2.833,2.833,0,0,1,2.5,3.126,2.833,2.833,0,0,1-3.126,2.506A2.833,2.833,0,0,1-1772.065,521.924Z" transform="translate(1772.083 -519.401)"/>
      </g>
      <g id="Group_1898" data-name="Group 1898" transform="translate(844.309 379.553)">
        <path id="Path_2515" data-name="Path 2515" class="cls-7" d="M-1864.209,508.262a1.4,1.4,0,0,1,1.549-1.241,1.4,1.4,0,0,1,1.242,1.549,1.4,1.4,0,0,1-1.549,1.241A1.4,1.4,0,0,1-1864.209,508.262Z" transform="translate(1864.218 -507.012)"/>
      </g>
      <g id="Group_1899" data-name="Group 1899" transform="translate(933.079 390.388)">
        <path id="Path_2516" data-name="Path 2516" class="cls-7" d="M-1992.526,524.281a2.063,2.063,0,0,1,2.278-1.825,2.064,2.064,0,0,1,1.824,2.278,2.064,2.064,0,0,1-2.277,1.825A2.064,2.064,0,0,1-1992.526,524.281Z" transform="translate(1992.538 -522.444)"/>
      </g>
      <g id="Group_1900" data-name="Group 1900" transform="translate(669.086 347.409)">
        <path id="Path_2517" data-name="Path 2517" class="cls-7" d="M-1614.623,462.476a1.4,1.4,0,0,1,1.549-1.241,1.4,1.4,0,0,1,1.242,1.549,1.4,1.4,0,0,1-1.549,1.241A1.4,1.4,0,0,1-1614.623,462.476Z" transform="translate(1614.631 -461.226)"/>
      </g>
      <g id="Group_1901" data-name="Group 1901" transform="translate(208.899 438.236)">
        <path id="Path_2518" data-name="Path 2518" class="cls-7" d="M-957.144,591.223a.7.7,0,0,1,.775-.621.7.7,0,0,1,.621.774.7.7,0,0,1-.774.621A.7.7,0,0,1-957.144,591.223Z" transform="translate(957.148 -590.598)"/>
      </g>
      <g id="Group_1902" data-name="Group 1902" transform="translate(485.237 432.941)">
        <path id="Path_2519" data-name="Path 2519" class="cls-7" d="M-1350.754,583.681a.7.7,0,0,1,.774-.62.7.7,0,0,1,.62.774.7.7,0,0,1-.774.621A.7.7,0,0,1-1350.754,583.681Z" transform="translate(1350.758 -583.056)"/>
      </g>
      <g id="Group_1903" data-name="Group 1903" transform="translate(510.331 364.126)">
        <path id="Path_2520" data-name="Path 2520" class="cls-7" d="M-1386.5,485.662a.7.7,0,0,1,.775-.621.7.7,0,0,1,.621.774.7.7,0,0,1-.774.621A.7.7,0,0,1-1386.5,485.662Z" transform="translate(1386.504 -485.037)"/>
      </g>
      <g id="Group_1904" data-name="Group 1904" transform="translate(656.789 457.237)">
        <path id="Path_2521" data-name="Path 2521" class="cls-7" d="M-1595.112,618.288a.7.7,0,0,1,.775-.621.7.7,0,0,1,.621.774.7.7,0,0,1-.775.621A.7.7,0,0,1-1595.112,618.288Z" transform="translate(1595.116 -617.663)"/>
      </g>
      <g id="Group_1905" data-name="Group 1905" transform="translate(712.971 364.726)">
        <path id="Path_2522" data-name="Path 2522" class="cls-7" d="M-1675.136,486.517a.7.7,0,0,1,.774-.621.7.7,0,0,1,.621.774.7.7,0,0,1-.774.621A.7.7,0,0,1-1675.136,486.517Z" transform="translate(1675.14 -485.892)"/>
      </g>
      <g id="Group_1906" data-name="Group 1906" transform="translate(714.796 419.534)">
        <path id="Path_2523" data-name="Path 2523" class="cls-7" d="M-1677.735,564.584a.7.7,0,0,1,.774-.621.7.7,0,0,1,.621.775.7.7,0,0,1-.774.621A.7.7,0,0,1-1677.735,564.584Z" transform="translate(1677.739 -563.959)"/>
      </g>
      <g id="Group_1907" data-name="Group 1907" transform="translate(782.219 470.884)">
        <path id="Path_2524" data-name="Path 2524" class="cls-7" d="M-1773.772,637.726a.7.7,0,0,1,.775-.621.7.7,0,0,1,.621.775.7.7,0,0,1-.774.621A.7.7,0,0,1-1773.772,637.726Z" transform="translate(1773.776 -637.101)"/>
      </g>
      <g id="Group_1908" data-name="Group 1908" transform="translate(943.518 519.808)">
        <path id="Path_2525" data-name="Path 2525" class="cls-7" d="M-2003.524,707.413a.7.7,0,0,1,.775-.621.7.7,0,0,1,.621.774.7.7,0,0,1-.774.621A.7.7,0,0,1-2003.524,707.413Z" transform="translate(2003.528 -706.788)"/>
      </g>
      <g id="Group_1909" data-name="Group 1909" transform="translate(859.478 488.221)">
        <path id="Path_2526" data-name="Path 2526" class="cls-7" d="M-1883.819,662.421a.7.7,0,0,1,.774-.621.7.7,0,0,1,.621.774.7.7,0,0,1-.775.621A.7.7,0,0,1-1883.819,662.421Z" transform="translate(1883.823 -661.796)"/>
      </g>
      <g id="Group_1910" data-name="Group 1910" transform="translate(1080.814 421.661)">
        <path id="Path_2527" data-name="Path 2527" class="cls-7" d="M-2199.086,567.615a.7.7,0,0,1,.774-.621.7.7,0,0,1,.621.774.7.7,0,0,1-.774.621A.7.7,0,0,1-2199.086,567.615Z" transform="translate(2199.09 -566.99)"/>
      </g>
      <g id="Group_1911" data-name="Group 1911" transform="translate(1053.647 449.723)">
        <path id="Path_2528" data-name="Path 2528" class="cls-7" d="M-2160.39,607.585a.7.7,0,0,1,.774-.62.7.7,0,0,1,.621.774.7.7,0,0,1-.775.621A.7.7,0,0,1-2160.39,607.585Z" transform="translate(2160.394 -606.96)"/>
      </g>
      <g id="Group_1912" data-name="Group 1912" transform="translate(1039.951 478.109)">
        <path id="Path_2529" data-name="Path 2529" class="cls-7" d="M-2140.88,648.018a.7.7,0,0,1,.774-.621.7.7,0,0,1,.62.775.7.7,0,0,1-.774.621A.7.7,0,0,1-2140.88,648.018Z" transform="translate(2140.884 -647.393)"/>
      </g>
      <g id="Group_1913" data-name="Group 1913" transform="translate(1045.019 336.157)">
        <path id="Path_2530" data-name="Path 2530" class="cls-7" d="M-2148.1,445.824a.7.7,0,0,1,.774-.621.7.7,0,0,1,.62.775.7.7,0,0,1-.774.621A.7.7,0,0,1-2148.1,445.824Z" transform="translate(2148.104 -445.198)"/>
      </g>
      <g id="Group_1914" data-name="Group 1914" transform="translate(678.644 375.84)">
        <path id="Path_2531" data-name="Path 2531" class="cls-7" d="M-1626.241,502.348a.7.7,0,0,1,.775-.621.7.7,0,0,1,.621.774.7.7,0,0,1-.774.621A.7.7,0,0,1-1626.241,502.348Z" transform="translate(1626.245 -501.723)"/>
      </g>
      <g id="Group_1915" data-name="Group 1915" transform="translate(418.679 389.476)">
        <path id="Path_2532" data-name="Path 2532" class="cls-7" d="M-1255.951,521.771a.7.7,0,0,1,.775-.621.7.7,0,0,1,.62.775.7.7,0,0,1-.774.621A.7.7,0,0,1-1255.951,521.771Z" transform="translate(1255.955 -521.145)"/>
      </g>
      <g id="Group_1916" data-name="Group 1916" transform="translate(285.706 418.733)">
        <path id="Path_2533" data-name="Path 2533" class="cls-7" d="M-1066.547,563.444a.7.7,0,0,1,.775-.621.7.7,0,0,1,.621.775.7.7,0,0,1-.775.621A.7.7,0,0,1-1066.547,563.444Z" transform="translate(1066.551 -562.818)"/>
      </g>
      <g id="Group_1917" data-name="Group 1917" transform="translate(329.157 413.658)">
        <path id="Path_2534" data-name="Path 2534" class="cls-7" d="M-1128.437,556.215a.7.7,0,0,1,.775-.621.7.7,0,0,1,.621.774.7.7,0,0,1-.775.621A.7.7,0,0,1-1128.437,556.215Z" transform="translate(1128.441 -555.59)"/>
      </g>
      <g id="Group_1918" data-name="Group 1918" transform="translate(375.799 470.041)">
        <path id="Path_2535" data-name="Path 2535" class="cls-7" d="M-1194.873,636.526a.7.7,0,0,1,.775-.621.7.7,0,0,1,.62.774.7.7,0,0,1-.774.621A.7.7,0,0,1-1194.873,636.526Z" transform="translate(1194.877 -635.901)"/>
      </g>
      <g id="Group_1919" data-name="Group 1919" transform="translate(138.975 487.127)">
        <path id="Path_2536" data-name="Path 2536" class="cls-7" d="M-857.544,660.863a.7.7,0,0,1,.774-.621.7.7,0,0,1,.62.774.7.7,0,0,1-.774.621A.7.7,0,0,1-857.544,660.863Z" transform="translate(857.548 -660.238)"/>
      </g>
      <g id="Group_1920" data-name="Group 1920" transform="translate(326.7 248.187)">
        <path id="Path_2537" data-name="Path 2537" class="cls-7" d="M-1124.937,320.521a.7.7,0,0,1,.774-.621.7.7,0,0,1,.621.774.7.7,0,0,1-.774.621A.7.7,0,0,1-1124.937,320.521Z" transform="translate(1124.941 -319.896)"/>
      </g>
      <g id="Group_1921" data-name="Group 1921" transform="translate(156.594 454.277)">
        <path id="Path_2538" data-name="Path 2538" class="cls-7" d="M-882.641,614.072a.7.7,0,0,1,.775-.621.7.7,0,0,1,.621.774.7.7,0,0,1-.774.621A.7.7,0,0,1-882.641,614.072Z" transform="translate(882.645 -613.447)"/>
      </g>
      <g id="Group_1922" data-name="Group 1922" transform="translate(218.69 505.38)">
        <path id="Path_2539" data-name="Path 2539" class="cls-7" d="M-971.09,686.862a.7.7,0,0,1,.775-.621.7.7,0,0,1,.621.775.7.7,0,0,1-.774.621A.7.7,0,0,1-971.09,686.862Z" transform="translate(971.094 -686.237)"/>
      </g>
      <g id="Group_1923" data-name="Group 1923" transform="translate(371.909 79.013)">
        <path id="Path_2540" data-name="Path 2540" class="cls-7" d="M-1189.332,79.552a.7.7,0,0,1,.775-.621.7.7,0,0,1,.621.774.7.7,0,0,1-.775.621A.7.7,0,0,1-1189.332,79.552Z" transform="translate(1189.336 -78.927)"/>
      </g>
      <g id="Group_1924" data-name="Group 1924" transform="translate(317.983 25.334)">
        <path id="Path_2541" data-name="Path 2541" class="cls-7" d="M-1112.521,3.092a.7.7,0,0,1,.774-.621.7.7,0,0,1,.621.775.7.7,0,0,1-.775.621A.7.7,0,0,1-1112.521,3.092Z" transform="translate(1112.525 -2.467)"/>
      </g>
      <g id="Group_1925" data-name="Group 1925" transform="translate(609.93 362.715)">
        <path id="Path_2542" data-name="Path 2542" class="cls-7" d="M-1528.366,483.652a.7.7,0,0,1,.775-.621.7.7,0,0,1,.621.774.7.7,0,0,1-.774.621A.7.7,0,0,1-1528.366,483.652Z" transform="translate(1528.37 -483.027)"/>
      </g>
      <g id="Group_1926" data-name="Group 1926" transform="translate(862.809 359.122)">
        <path id="Path_2543" data-name="Path 2543" class="cls-7" d="M-1888.563,478.534a.7.7,0,0,1,.775-.621.7.7,0,0,1,.621.774.7.7,0,0,1-.775.621A.7.7,0,0,1-1888.563,478.534Z" transform="translate(1888.567 -477.909)"/>
      </g>
      <g id="Group_1927" data-name="Group 1927" transform="translate(1033.993 403.107)">
        <path id="Path_2544" data-name="Path 2544" class="cls-7" d="M-2132.395,541.186a.7.7,0,0,1,.775-.621.7.7,0,0,1,.62.774.7.7,0,0,1-.774.621A.7.7,0,0,1-2132.395,541.186Z" transform="translate(2132.399 -540.561)"/>
      </g>
      <g id="Group_1928" data-name="Group 1928" transform="translate(980.721 491.95)">
        <path id="Path_2545" data-name="Path 2545" class="cls-7" d="M-2056.516,667.733a.7.7,0,0,1,.775-.621.7.7,0,0,1,.62.775.7.7,0,0,1-.775.621A.7.7,0,0,1-2056.516,667.733Z" transform="translate(2056.52 -667.108)"/>
      </g>
      <g id="Group_1929" data-name="Group 1929" transform="translate(457.633 112.05)">
        <path id="Path_2546" data-name="Path 2546" class="cls-7" d="M-1311.437,126.609a.7.7,0,0,1,.775-.621.7.7,0,0,1,.621.774.7.7,0,0,1-.775.621A.7.7,0,0,1-1311.437,126.609Z" transform="translate(1311.441 -125.984)"/>
      </g>
      <g id="Group_1930" data-name="Group 1930" transform="translate(542.593 90.344)">
        <path id="Path_2547" data-name="Path 2547" class="cls-7" d="M-1432.451,95.691a.7.7,0,0,1,.774-.621.7.7,0,0,1,.62.774.7.7,0,0,1-.774.621A.7.7,0,0,1-1432.451,95.691Z" transform="translate(1432.455 -95.066)"/>
      </g>
      <g id="Group_1931" data-name="Group 1931" transform="translate(522.904 156.438)">
        <path id="Path_2548" data-name="Path 2548" class="cls-7" d="M-1404.407,189.835a.7.7,0,0,1,.775-.621.7.7,0,0,1,.621.775.7.7,0,0,1-.774.621A.7.7,0,0,1-1404.407,189.835Z" transform="translate(1404.411 -189.21)"/>
      </g>
      <g id="Group_1932" data-name="Group 1932" transform="translate(598.579 143.939)">
        <path id="Path_2549" data-name="Path 2549" class="cls-7" d="M-1512.2,172.031a.7.7,0,0,1,.774-.621.7.7,0,0,1,.621.775.7.7,0,0,1-.774.621A.7.7,0,0,1-1512.2,172.031Z" transform="translate(1512.202 -171.406)"/>
      </g>
      <g id="Group_1933" data-name="Group 1933" transform="translate(686.761 134.809)">
        <path id="Path_2550" data-name="Path 2550" class="cls-7" d="M-1637.8,159.027a.7.7,0,0,1,.774-.621.7.7,0,0,1,.621.774.7.7,0,0,1-.774.621A.7.7,0,0,1-1637.8,159.027Z" transform="translate(1637.807 -158.402)"/>
      </g>
      <g id="Group_1934" data-name="Group 1934" transform="translate(735.031 223.295)">
        <path id="Path_2551" data-name="Path 2551" class="cls-7" d="M-1706.157,285.778a.7.7,0,0,1-.34-.933.7.7,0,0,1,.932-.34.7.7,0,0,1,.34.933A.7.7,0,0,1-1706.157,285.778Z" transform="translate(1706.563 -284.439)"/>
      </g>
      <g id="Group_1935" data-name="Group 1935" transform="translate(752.456 309.192)">
        <path id="Path_2552" data-name="Path 2552" class="cls-7" d="M-1730.977,408.128a.7.7,0,0,1-.34-.933.7.7,0,0,1,.933-.34.7.7,0,0,1,.34.933A.7.7,0,0,1-1730.977,408.128Z" transform="translate(1731.382 -406.789)"/>
      </g>
      <g id="Group_1936" data-name="Group 1936" transform="translate(821.646 250.325)">
        <path id="Path_2553" data-name="Path 2553" class="cls-7" d="M-1829.531,324.279a.7.7,0,0,1-.339-.933.7.7,0,0,1,.932-.34.7.7,0,0,1,.34.933A.7.7,0,0,1-1829.531,324.279Z" transform="translate(1829.936 -322.94)"/>
      </g>
      <g id="Group_1937" data-name="Group 1937" transform="translate(890.435 313.436)">
        <path id="Path_2554" data-name="Path 2554" class="cls-7" d="M-1927.512,414.173a.7.7,0,0,1-.34-.932.7.7,0,0,1,.933-.341.7.7,0,0,1,.34.933A.7.7,0,0,1-1927.512,414.173Z" transform="translate(1927.918 -412.834)"/>
      </g>
      <g id="Group_1938" data-name="Group 1938" transform="translate(161.068 82.214)">
        <path id="Path_2555" data-name="Path 2555" class="cls-7" d="M-888.612,84.825a.7.7,0,0,1-.34-.933.7.7,0,0,1,.932-.34.7.7,0,0,1,.34.932A.7.7,0,0,1-888.612,84.825Z" transform="translate(889.018 -83.486)"/>
      </g>
      <g id="Group_1939" data-name="Group 1939" transform="translate(205.315)">
        <path id="Path_2556" data-name="Path 2556" class="cls-7" d="M-951.637-32.28a.7.7,0,0,1-.34-.933.7.7,0,0,1,.933-.34.7.7,0,0,1,.34.933A.7.7,0,0,1-951.637-32.28Z" transform="translate(952.043 33.619)"/>
      </g>
      <g id="Group_1940" data-name="Group 1940" transform="translate(479.058 359.901)">
        <path id="Path_2557" data-name="Path 2557" class="cls-7" d="M-1343.951,480.269a1.4,1.4,0,0,1,1.55-1.241,1.4,1.4,0,0,1,1.242,1.549,1.4,1.4,0,0,1-1.549,1.242A1.4,1.4,0,0,1-1343.951,480.269Z" transform="translate(1343.959 -479.019)"/>
      </g>
      <g id="Group_1941" data-name="Group 1941" transform="translate(273.461 356.703)">
        <path id="Path_2558" data-name="Path 2558" class="cls-7" d="M-1053.1,476.339a2.106,2.106,0,0,1,2.325-1.863,2.106,2.106,0,0,1,1.862,2.324,2.106,2.106,0,0,1-2.324,1.863A2.107,2.107,0,0,1-1053.1,476.339Z" transform="translate(1053.11 -474.464)"/>
      </g>
      <g id="Group_1942" data-name="Group 1942" transform="translate(360.739 395.084)">
        <path id="Path_2559" data-name="Path 2559" class="cls-7" d="M-1177.414,531.008a2.107,2.107,0,0,1,2.325-1.863,2.106,2.106,0,0,1,1.862,2.324,2.106,2.106,0,0,1-2.324,1.863A2.106,2.106,0,0,1-1177.414,531.008Z" transform="translate(1177.427 -529.133)"/>
      </g>
      <g id="Group_1943" data-name="Group 1943" transform="translate(941.825 357.677)">
        <path id="Path_2560" data-name="Path 2560" class="cls-7" d="M-2005.1,477.726a2.107,2.107,0,0,1,2.324-1.863,2.106,2.106,0,0,1,1.863,2.325,2.106,2.106,0,0,1-2.324,1.863A2.107,2.107,0,0,1-2005.1,477.726Z" transform="translate(2005.118 -475.851)"/>
      </g>
      <g id="Group_1944" data-name="Group 1944" transform="translate(803.967 436.709)">
        <path id="Path_2561" data-name="Path 2561" class="cls-7" d="M-1808.741,590.3a2.106,2.106,0,0,1,2.324-1.863,2.106,2.106,0,0,1,1.863,2.325,2.106,2.106,0,0,1-2.324,1.862A2.106,2.106,0,0,1-1808.741,590.3Z" transform="translate(1808.754 -588.423)"/>
      </g>
      <g id="Group_1945" data-name="Group 1945" transform="translate(999.946 407.231)">
        <path id="Path_2562" data-name="Path 2562" class="cls-7" d="M-2087.891,548.311a2.107,2.107,0,0,1,2.324-1.863,2.106,2.106,0,0,1,1.863,2.325,2.106,2.106,0,0,1-2.325,1.862A2.106,2.106,0,0,1-2087.891,548.311Z" transform="translate(2087.904 -546.435)"/>
      </g>
      <g id="Group_1946" data-name="Group 1946" transform="translate(994.677 446.548)">
        <path id="Path_2563" data-name="Path 2563" class="cls-7" d="M-2080.386,604.313a2.106,2.106,0,0,1,2.325-1.863,2.105,2.105,0,0,1,1.862,2.324,2.106,2.106,0,0,1-2.324,1.863A2.107,2.107,0,0,1-2080.386,604.313Z" transform="translate(2080.398 -602.438)"/>
      </g>
      <g id="Group_1947" data-name="Group 1947" transform="translate(541.826 331.061)">
        <path id="Path_2564" data-name="Path 2564" class="cls-7" d="M-1435.351,439.815a2.106,2.106,0,0,1,2.324-1.863,2.106,2.106,0,0,1,1.862,2.324,2.106,2.106,0,0,1-2.324,1.863A2.105,2.105,0,0,1-1435.351,439.815Z" transform="translate(1435.364 -437.94)"/>
      </g>
      <g id="Group_1948" data-name="Group 1948" transform="translate(726.814 374.871)">
        <path id="Path_2565" data-name="Path 2565" class="cls-7" d="M-1698.847,502.217a2.106,2.106,0,0,1,2.325-1.863,2.106,2.106,0,0,1,1.862,2.324,2.106,2.106,0,0,1-2.324,1.862A2.106,2.106,0,0,1-1698.847,502.217Z" transform="translate(1698.859 -500.342)"/>
      </g>
      <g id="Group_1949" data-name="Group 1949" transform="translate(469.246 166.826)">
        <ellipse id="Ellipse_297" data-name="Ellipse 297" class="cls-7" cx="2.106" cy="2.106" rx="2.106" ry="2.106" transform="matrix(-0.174, -0.985, 0.985, -0.174, 0.732, 4.88)"/>
      </g>
      <g id="Group_1950" data-name="Group 1950" transform="translate(286.297 158.275)">
        <path id="Path_2566" data-name="Path 2566" class="cls-7" d="M-1069.363,191.827a2.107,2.107,0,0,1,2.182,2.028,2.107,2.107,0,0,1-2.028,2.182,2.105,2.105,0,0,1-2.181-2.028A2.106,2.106,0,0,1-1069.363,191.827Z" transform="translate(1071.392 -191.826)"/>
      </g>
      <g id="Group_1951" data-name="Group 1951" transform="translate(78.705 412.571)">
        <path id="Path_2567" data-name="Path 2567" class="cls-7" d="M-773.673,554.042a2.106,2.106,0,0,1,2.182,2.028,2.106,2.106,0,0,1-2.027,2.182,2.106,2.106,0,0,1-2.182-2.028A2.106,2.106,0,0,1-773.673,554.042Z" transform="translate(775.702 -554.041)"/>
      </g>
      <g id="Group_1952" data-name="Group 1952" transform="translate(86.384 349.756)">
        <path id="Path_2568" data-name="Path 2568" class="cls-7" d="M-790.618,467.694a3.51,3.51,0,0,1,3.874-3.1,3.51,3.51,0,0,1,3.1,3.874,3.51,3.51,0,0,1-3.874,3.1A3.511,3.511,0,0,1-790.618,467.694Z" transform="translate(790.64 -464.568)"/>
      </g>
      <g id="Group_1953" data-name="Group 1953" transform="translate(125.073 221.736)">
        <path id="Path_2569" data-name="Path 2569" class="cls-7" d="M-845.727,285.345a3.511,3.511,0,0,1,3.874-3.1,3.511,3.511,0,0,1,3.1,3.874,3.51,3.51,0,0,1-3.874,3.1A3.511,3.511,0,0,1-845.727,285.345Z" transform="translate(845.749 -282.22)"/>
      </g>
      <g id="Group_1954" data-name="Group 1954" transform="translate(345.733 146.432)">
        <path id="Path_2570" data-name="Path 2570" class="cls-7" d="M-1160.031,178.083a3.511,3.511,0,0,1,3.874-3.1,3.51,3.51,0,0,1,3.1,3.874,3.511,3.511,0,0,1-3.874,3.1A3.511,3.511,0,0,1-1160.031,178.083Z" transform="translate(1160.053 -174.957)"/>
      </g>
      <g id="Group_1955" data-name="Group 1955" transform="translate(318.94 270.263)">
        <path id="Path_2571" data-name="Path 2571" class="cls-7" d="M-1121.868,354.465a3.51,3.51,0,0,1,3.874-3.1,3.51,3.51,0,0,1,3.1,3.874,3.51,3.51,0,0,1-3.874,3.1A3.51,3.51,0,0,1-1121.868,354.465Z" transform="translate(1121.89 -351.339)"/>
      </g>
      <g id="Group_1956" data-name="Group 1956" transform="translate(396.54 125.267)">
        <path id="Path_2572" data-name="Path 2572" class="cls-7" d="M-1232.4,147.935a3.51,3.51,0,0,1,3.874-3.1,3.511,3.511,0,0,1,3.1,3.874,3.51,3.51,0,0,1-3.874,3.1A3.51,3.51,0,0,1-1232.4,147.935Z" transform="translate(1232.421 -144.81)"/>
      </g>
      <g id="Group_1957" data-name="Group 1957" transform="translate(190.986 101.126)">
        <path id="Path_2573" data-name="Path 2573" class="cls-7" d="M-939.612,113.549a3.51,3.51,0,0,1,3.874-3.1,3.511,3.511,0,0,1,3.1,3.874,3.511,3.511,0,0,1-3.874,3.1A3.51,3.51,0,0,1-939.612,113.549Z" transform="translate(939.634 -110.423)"/>
      </g>
      <g id="Group_1958" data-name="Group 1958" transform="translate(229.237 68.39)">
        <path id="Path_2574" data-name="Path 2574" class="cls-7" d="M-994.1,66.921a3.51,3.51,0,0,1,3.874-3.1,3.511,3.511,0,0,1,3.1,3.874,3.511,3.511,0,0,1-3.874,3.1A3.51,3.51,0,0,1-994.1,66.921Z" transform="translate(994.119 -63.795)"/>
      </g>
      <g id="Group_1959" data-name="Group 1959" transform="translate(183.891 374.029)">
        <path id="Path_2575" data-name="Path 2575" class="cls-7" d="M-929.506,502.269a3.51,3.51,0,0,1,3.874-3.1,3.51,3.51,0,0,1,3.1,3.874,3.51,3.51,0,0,1-3.874,3.1A3.51,3.51,0,0,1-929.506,502.269Z" transform="translate(929.528 -499.143)"/>
      </g>
      <g id="Group_1960" data-name="Group 1960" transform="translate(175.275 240.807)">
        <path id="Path_2576" data-name="Path 2576" class="cls-7" d="M-917.234,312.509a3.511,3.511,0,0,1,3.874-3.1,3.511,3.511,0,0,1,3.1,3.874,3.51,3.51,0,0,1-3.874,3.1A3.511,3.511,0,0,1-917.234,312.509Z" transform="translate(917.256 -309.384)"/>
      </g>
      <g id="Group_1961" data-name="Group 1961" class="cls-8" transform="translate(0 103.313)">
        <path id="Path_2577" data-name="Path 2577" class="cls-7" d="M-1616.338,433.314l.177-.772,17.648-76.936,31.527,32.76.223-.441,49.073-96.941,37.651,23.385-39.836,25.544.117.273,30.751,71.849,63.285-64.754-53-32.921,46.782-30,53.171,5.864,11.967,58.024,8.705-55.743,31.724,3.5,61.456,38.03.115-.468,11.863-47.9,15.4,10.174.2-.279,37.932-53.911,37.361,26.647,1.061,28.964,28.751-7.7,46.253,32.988,46.407-9.533,55.175,52.2-9.49-66.633-.076-.08-79.342-85.019,21.929,53.691L-1132.1,288.8l-29.262-20.869-2.841-77.537-35.377,50.28-36.494-26.028-.124.5-17.185,69.391-46.545-30.748-43.435-60.2-15.327,98.154-19.5-2.15-12.518-60.7,27.477,13.461-42.882-84.682,14.428,69.961-116.174-56.91-.148.063-65.751,28.332,69.21,64.353-13.425,26.52-57.955-36-.11.479-22.873,99.718-32.446-33.714,5.8-84.895,66.691-122.035-1.339,1.047L-1754.478,266.4l.258.28,89.378,97.046ZM-1599.1,355l-17.574,76.612-47.627-68.321-89.15-96.8,192.341-150.3-65.134,119.188-.006.077-5.829,85.282Zm172.26-7.586-61.94,63.378L-1519,340.181l39.616-25.4Zm-91.453-56.8-48.878,96.555-31.16-32.379,22.867-99.686Zm523.731,8.288,9.174,64.423-53.979-51.068-46.465,9.544-45.533-32.474,80.928-21.679-20.784-50.889Zm-364.242-6.47-8.1,51.882-11.138-54Zm105.236-7.173-11.806,47.675-60.771-37.606-.079-.008-31.772-3.5,15.059-96.435,42.51,58.924.054.035Zm-178.55-1.619-.1.067-47.168,30.245-37.987-23.594,13.362-26.395,20.242,18.821,3.829-67.928-24.277,47.957-68.274-63.482,64.614-27.842,116.373,57.008,12.582,61.009Zm232.13-42.394-37.739,53.635-15.039-9.935,17.121-69.132Zm67,47.788-27.341,7.325-1.01-27.544Zm-347.85-70.864-3.557,63.083-19.3-17.941Zm316-25.669,2.744,74.914-36.926-26.335Zm-239.535-29.823,39.56,78.119-26.084-12.777Z" transform="translate(1754.478 -113.539)"/>
      </g>
      <g id="Group_1962" data-name="Group 1962" transform="translate(703.032 256.483)">
        <path id="Path_2578" data-name="Path 2578" class="cls-7" d="M-1730.035,378.082l46.388-14.246-58.114-32.124Zm44.6-14.431-44.1,13.543-11.148-44.083Z" transform="translate(1741.761 -331.712)"/>
      </g>
      <g id="Group_1963" data-name="Group 1963" transform="translate(638.199 256.832)">
        <rect id="Rectangle_1996" data-name="Rectangle 1996" class="cls-7" width="0.702" height="65.442" transform="matrix(-0.052, -0.999, 0.999, -0.052, 0.036, 4.088)"/>
      </g>
      <g id="Group_1964" data-name="Group 1964" class="cls-8" transform="translate(593.453 287.424)">
        <path id="Path_2579" data-name="Path 2579" class="cls-7" d="M-1560.592,465.954l-14.039-75.25-.69.129,13.785,73.887-57.88-27.9-.083,0-62.484,1.03-13.862-62.069-.685.153,13.986,62.627.286,0,62.688-1.034Z" transform="translate(1696.531 -375.784)"/>
      </g>
      <g id="Group_1965" data-name="Group 1965" class="cls-10" transform="translate(273.479 180.852)">
        <path id="Path_2580" data-name="Path 2580" class="cls-7" d="M-1605.7,381.372l62.692-106.5,63.094,12.327-25.811,41.188-41.114,51.259,102.309-12.873.141.321.229-.317,54.554,9.9.129-.12,49.788-46.487,1.255.023-109.749-61.539,33.3-20.1,71.208-23.739,91.628,23.516-43.813,55.442.122.208,30.646,51.869,35.306-55.245-.592-.378-34.69,54.283-29.944-50.678,44.184-55.911-92.874-23.836-.1.032-71.38,23.8-33.711,20.346-73.366-41.139-.121.02-137.8,22.122,48.631,67.872Zm62.339-107.288-.126.214L-1605.2,379.135l-5.659-62.356-.056-.078-48.026-67.028,136.556-21.922,72.8,40.823-29.832,18Zm98.535,92.016-100.381,12.631,40.053-49.939L-1479.4,287.7Zm104.128-36.05-49.13,45.873-53.877-9.78,27.08-37.523Zm-.517-.712-75.764-1.427-.108.15-27.155,37.626-34.659-78.6,30.026-18.121Z" transform="translate(1660.173 -223.984)"/>
      </g>
      <g id="Group_1966" data-name="Group 1966" transform="translate(409.702 168.885)">
        <path id="Path_2581" data-name="Path 2581" class="cls-7" d="M-1287.989,243.684l-48.261-36.745-.164.04-61.9,15.37Zm-48.42-35.983,45.608,34.724-104.256-20.161Z" transform="translate(1398.314 -206.939)"/>
      </g>
      <g id="Group_1967" data-name="Group 1967" transform="translate(80.461 353.212)">
        <path id="Path_2582" data-name="Path 2582" class="cls-7" d="M-786.133,530.969l.7-.025c-.06-1.638,5.912-40.843,9.078-61.344l-.694-.107C-777.421,471.916-786.21,528.855-786.133,530.969Z" transform="translate(786.133 -469.492)"/>
      </g>
      <g id="Group_1968" data-name="Group 1968" transform="translate(246.128 121.662)">
        <path id="Path_2583" data-name="Path 2583" class="cls-7" d="M-1040.772,224.4l14.452-46.365-41.784.493,12.571-38.638-.668-.217-12.873,39.569,41.8-.494-14.164,45.442Z" transform="translate(1069.074 -139.675)"/>
      </g>
      <g id="Group_1969" data-name="Group 1969" transform="translate(181.008 104.582)">
        <path id="Path_2584" data-name="Path 2584" class="cls-7" d="M-934.43,199.8c.38-3.441,13.01-83.533,13.138-84.341l-.694-.11c-.128.809-12.761,80.916-13.142,84.373Z" transform="translate(935.127 -115.346)"/>
      </g>
      <g id="Group_1970" data-name="Group 1970" class="cls-11" transform="translate(122.498 103.988)">
        <path id="Path_2585" data-name="Path 2585" class="cls-7" d="M-1131.166,340.516l35.252-57.855,51.95,1.98.092-.057,68.105-42.487.043-.1,20.912-47.193-.023-.11L-966.2,138.8l-51.165,21.314-60.59,10.4-29.012-38.536-.117-.031-66.008-17.444,52.914,57.1,27.058,44.709-92.365-17.221-2.583,55.608-55.944,65.965.535.454,56.1-66.148.006-.12,2.552-54.922,93.112,17.361-27.93-46.138-51.294-55.351,63.552,16.794,29.123,38.684.211-.036,60.88-10.445.036-.015,50.413-21,11.174,54.947-20.777,46.89-67.83,42.316-52.147-1.988-.107.176-35.359,58.031Z" transform="translate(1244.011 -114.5)"/>
      </g>
      <g id="Group_1971" data-name="Group 1971" transform="translate(273.268 149.526)">
        <path id="Path_2586" data-name="Path 2586" class="cls-7" d="M-1126.608,261.525l.147-.686-115.617-24.9,74.351-55.744,61.889,34.2.34-.614-62.287-34.42-.182.136-75.764,56.8Z" transform="translate(1243.731 -179.364)"/>
      </g>
      <g id="Group_1972" data-name="Group 1972" transform="translate(34.193 94.75)">
        <path id="Path_2587" data-name="Path 2587" class="cls-7" d="M-889.543,429.2l.121-.109,49.916-45.139-97.628-24.3,32.416-42.3L-791.85,336.9l-56.765-86.275-.106-.04L-898.3,231.749l52.581-36.122-.319-.3-100.715-93.987-.479.513,100.4,93.689L-899.8,231.929l50.722,19.268,55.749,84.731-111.689-19.344-.129.168-33.2,43.317,97.388,24.244-48.819,44.147-56.837-7.517-46.233-74.188-.6.371L-947.03,421.6l.165.022Z" transform="translate(993.439 -101.342)"/>
      </g>
      <g id="Group_1973" data-name="Group 1973" transform="translate(177.711 206.476)">
        <path id="Path_2588" data-name="Path 2588" class="cls-7" d="M-955.482,326.261l.025-.444,3.684-65.333-96.725,37.886Zm2.947-64.725-3.6,63.8-90.216-27.052Z" transform="translate(1048.498 -260.483)"/>
      </g>
      <g id="Group_1974" data-name="Group 1974" transform="translate(44.327 127.14)">
        <path id="Path_2589" data-name="Path 2589" class="cls-7" d="M-763.13,331.017l.348-.61-77.111-43.963,83.209-40.69-41.66-98.277-.646.274,41.4,97.664-83.8,40.981Z" transform="translate(841.394 -147.477)"/>
      </g>
      <g id="Group_1975" data-name="Group 1975" transform="translate(516.541 284.961)">
        <path id="Path_2590" data-name="Path 2590" class="cls-7" d="M-1521.895,437.541l60.476-37.667,1.887,36.272.7-.036-1.948-37.461-61.231,38.137-63.5-16.605-27.012-47.9-.611.345,27.157,48.163Z" transform="translate(1613.13 -372.276)"/>
      </g>
      <g id="Group_1976" data-name="Group 1976" class="cls-8" transform="translate(256.605 121.284)">
        <path id="Path_2591" data-name="Path 2591" class="cls-7" d="M-1165.258,199.586l-87.56-49.87.3-.357-.861.1-103.4-3.18-143.456-7.143,92.6,29.017,73.122-8.526,49.247,27.833.073.008Zm-88.022-49.326,84.792,48.293-115.962-11.717Zm-.926,0-31.024,36.407-48.092-27.182Zm-81.336,8.777-72.018,8.4-87.212-27.328,137.885,6.866Zm77.4-9.025-76.219,8.887-21.016-11.879Z" transform="translate(1500.232 -139.136)"/>
      </g>
      <g id="Group_1977" data-name="Group 1977" class="cls-8" transform="translate(362.178 335.922)">
        <path id="Path_2592" data-name="Path 2592" class="cls-7" d="M-1288.47,506.842l80.732-38.777-.3-.632-79.094,37.991,24.439-60.3-.65-.264Z" transform="translate(1288.47 -444.864)"/>
      </g>
      <g id="Group_1978" data-name="Group 1978" class="cls-10" transform="translate(186.74 322.977)">
        <path id="Path_2593" data-name="Path 2593" class="cls-7" d="M-1276.1,504.989l.06,0,97.836-4.021-34.637-60.057,58.759-1.054,55.251,22.8.161-.123,46.576-35.55-.426-.558-46.416,35.428-55.013-22.7h-.073l-59.426,1.068-93.285-7.313-.114.115-48.055,48.133Zm96.708-4.677-96.619,3.971-77.568-23.461,47.113-47.189,92.811,7.273Z" transform="translate(1354.899 -426.425)"/>
      </g>
      <g id="Group_1979" data-name="Group 1979" class="cls-12" transform="translate(187.052 377.514)">
        <path id="Path_2594" data-name="Path 2594" class="cls-7" d="M-1031.186,572.928l73.75-44.848-.364-.6-72.769,44.251-4.885-67.625-.7.051Z" transform="translate(1036.154 -504.107)"/>
      </g>
      <g id="Group_1980" data-name="Group 1980" class="cls-8" transform="translate(232.153 71.531)">
        <path id="Path_2595" data-name="Path 2595" class="cls-7" d="M-1060.021,125.8l.41-.57-75.076-54.1-93.026-2.862,26.872,50.4.619-.33-26.3-49.336,91.6,2.818Z" transform="translate(1227.713 -68.27)"/>
      </g>
      <g id="Group_1981" data-name="Group 1981" transform="translate(259.131 73.724)">
        <path id="Path_2596" data-name="Path 2596" class="cls-7" d="M-1092.174,158.188l37.152-86.8-66.747,47.761.409.571,64.7-46.3-36.164,84.486Z" transform="translate(1121.77 -71.393)"/>
      </g>
      <g id="Group_1982" data-name="Group 1982" class="cls-13" transform="translate(85.632 22.569)">
        <path id="Path_2597" data-name="Path 2597" class="cls-7" d="M-989.9,93.026l108.933-12.093.083-.07L-842.26,47.8l-.431-.248L-928.064-1.471l-.349.609,84.942,48.78-37.792,32.342L-989.981,92.328Z" transform="translate(989.981 1.471)"/>
      </g>
      <g id="Group_1983" data-name="Group 1983" transform="translate(552.514 204.551)">
        <rect id="Rectangle_1997" data-name="Rectangle 1997" class="cls-7" width="0.702" height="132.909" transform="translate(0.155 30.056) rotate(-102.767)"/>
      </g>
      <g id="Group_1984" data-name="Group 1984" class="cls-8" transform="translate(442.672 332.827)">
        <rect id="Rectangle_1998" data-name="Rectangle 1998" class="cls-7" width="0.702" height="104.372" transform="translate(0.172 26.32) rotate(-104.221)"/>
      </g>
      <g id="Group_1985" data-name="Group 1985" class="cls-11" transform="translate(589.664 181.035)">
        <path id="Path_2598" data-name="Path 2598" class="cls-7" d="M-1728.65,465.3l-10.328-29.129,66.255,17.211.177-.679-67.535-17.544,10.374,29.258-103.27-16.8-61.8-13.514-10.086-37.379-40.817,23.021-60.22-64.893-.084-.028-74.021-25.118,44.038-25.8-48.438-79.657-.6.365,48.067,79.047-44.748,26.221,75.392,25.583,60.475,65.168.241-.136,40.271-22.713,9.962,36.919,62.238,13.609Z" transform="translate(2085.009 -224.245)"/>
      </g>
      <g id="Group_1986" data-name="Group 1986" class="cls-8" transform="translate(971.312 421.106)">
        <rect id="Rectangle_1999" data-name="Rectangle 1999" class="cls-7" width="0.702" height="17.212" transform="matrix(-0.997, -0.081, 0.081, -0.997, 0.7, 17.212)"/>
      </g>
      <g id="Group_1987" data-name="Group 1987" class="cls-14" transform="translate(867.357 358.952)">
        <path id="Path_2599" data-name="Path 2599" class="cls-7" d="M-1962.044,618.794l.6-.364-31.131-51.233-24.038-27.541-29.242-61.99-43.719,18.291-.058.121-32.983,69.275.634.3,32.925-69.154,42.853-17.928,29,61.47.032.037,24.035,27.529Z" transform="translate(2122.614 -477.667)"/>
      </g>
      <g id="Group_1988" data-name="Group 1988" class="cls-8" transform="translate(796.439 332.527)">
        <path id="Path_2600" data-name="Path 2600" class="cls-7" d="M-1847.175,546.57l35.771-34.258-.151-.242-44.9-72.043-.6.371,44.751,71.8-35.36,33.863Z" transform="translate(1857.052 -440.027)"/>
      </g>
      <g id="Group_1989" data-name="Group 1989" transform="translate(759.982 288.291)">
        <path id="Path_2601" data-name="Path 2601" class="cls-7" d="M-1921,493.886l59.059-27.259,34.716,15.036,8.905-33.44-.678-.18-8.7,32.652-34.256-14.837-.143.066-58.835,27.155-71.5-50.325,27.064-21.26-36.713-44.475-.542.447,36.255,43.921-27.24,21.4.385.272Z" transform="translate(2002.617 -377.018)"/>
      </g>
      <g id="Group_1990" data-name="Group 1990" class="cls-8" transform="translate(796.49 332.462)">
        <path id="Path_2602" data-name="Path 2602" class="cls-7" d="M-1891.42,488.791l.156-.01,54.943-3.443-.044-.7-54.787,3.433-48.865-48.135-.493.5Z" transform="translate(1940.509 -439.936)"/>
      </g>
      <g id="Group_1991" data-name="Group 1991" class="cls-8" transform="translate(945.488 409.286)">
        <path id="Path_2603" data-name="Path 2603" class="cls-7" d="M-2033.585,589.238l5.073-39.875-29.467,11.5-27.505.509.012.7,27.631-.511.058-.023,28.425-11.092-4.809,37.8-25.012-10.2-.265.65Z" transform="translate(2085.485 -549.363)"/>
      </g>
      <g id="Group_1992" data-name="Group 1992" class="cls-8" transform="translate(840.577 380.889)">
        <path id="Path_2604" data-name="Path 2604" class="cls-7" d="M-1867.118,575l.593-.377-26.65-41.988,4.738-23.587-.689-.138-4.793,23.862.076.12Z" transform="translate(1893.919 -508.914)"/>
      </g>
      <g id="Group_1993" data-name="Group 1993" transform="translate(867.566 421.311)">
        <rect id="Rectangle_2000" data-name="Rectangle 2000" class="cls-7" width="0.702" height="81.781" transform="translate(0.216 25.813) rotate(-107.906)"/>
      </g>
      <g id="Group_1994" data-name="Group 1994" class="cls-8" transform="translate(727.357 376.174)">
        <path id="Path_2605" data-name="Path 2605" class="cls-7" d="M-1753.289,573.163l.09-.7-61.425-7.952-26.449-47.6-.141-.039-52.347-14.679,78.443,62.872.052.094.176.023Zm-88.256-55.649,25.525,45.934-74.415-59.644Z" transform="translate(1893.561 -502.198)"/>
      </g>
      <g id="Group_1995" data-name="Group 1995" transform="translate(945.306 421.349)">
        <path id="Path_2606" data-name="Path 2606" class="cls-7" d="M-2039.893,645.33l.518-.475-56.6-61.641-.039-.024-26.167-16.644-.377.592,26.129,16.62Z" transform="translate(2122.556 -566.545)"/>
      </g>
      <g id="Group_1996" data-name="Group 1996" class="cls-4" transform="translate(840.948 404.682)">
        <path id="Path_2607" data-name="Path 2607" class="cls-7" d="M-1890.565,584.913l-26.726-42.108,43.43,7.024Z" transform="translate(1917.291 -542.805)"/>
      </g>
      <g id="Group_1997" data-name="Group 1997" class="cls-8" transform="translate(234.898 329.474)">
        <rect id="Rectangle_2001" data-name="Rectangle 2001" class="cls-7" width="144.471" height="0.702" transform="translate(127.764 68.063) rotate(-152.172)"/>
      </g>
    </g>
  </g>
</svg>
